<?xml version="1.0" encoding="UTF-8"?>
<svg viewBox="0 0 182 75" version="1.1" xmlns="http://www.w3.org/2000/svg" xmlns:xlink="http://www.w3.org/1999/xlink">
    <g id="Page-1" stroke="none" stroke-width="1" fill="none" fill-rule="evenodd">
        <g id="reflexer" fill="#4A4A4A" fill-rule="nonzero">
            <path d="M36.4512195,42.9814815 C36.4512195,44.212963 36.0853659,45.4444444 35.3536585,46.3240741 C34.6219512,47.2037037 33.5243902,47.9074074 32.4268293,48.2592593 L37,56 L32.9756098,56 L28.7682927,48.962963 L25.8414634,48.962963 L25.8414634,56 L22,56 L22,37 L29.3170732,37 C30.4146341,37 31.5121951,37.1759259 32.2439024,37.5277778 C33.1585366,37.8796296 33.8902439,38.2314815 34.4390244,38.7592593 C34.9878049,39.287037 35.5365854,39.9907407 35.902439,40.6944444 C36.4512195,41.3981481 36.4512195,42.2777778 36.4512195,42.9814815 Z M32.7926829,42.9814815 C32.7926829,42.1018519 32.6097561,41.5740741 32.0609756,41.0462963 C31.5121951,40.5185185 30.7804878,40.3425926 29.6829268,40.3425926 L26.0243902,40.3425926 L26.0243902,45.9722222 L29.6829268,45.9722222 C30.7804878,45.9722222 31.5121951,45.7962963 32.0609756,45.2685185 C32.4268293,44.5648148 32.7926829,43.8611111 32.7926829,42.9814815 Z" id="Shape"></path>
            <polygon id="Shape" points="44 37 56.8169014 37 56.8169014 40.1376147 47.6619718 40.1376147 47.6619718 44.6697248 56.2676056 44.6697248 56.2676056 47.8073394 47.6619718 47.8073394 47.6619718 52.8623853 57 52.8623853 57 56 44 56"></polygon>
            <polygon id="Shape" points="65 37 77 37 77 40.1376147 68.4782609 40.1376147 68.4782609 45.0183486 76.4782609 45.0183486 76.4782609 48.1559633 68.4782609 48.1559633 68.4782609 56 65 56"></polygon>
            <polygon id="Shape" points="83 37 86.6521739 37 86.6521739 52.8333333 95 52.8333333 95 56 83.173913 56 83.173913 37"></polygon>
            <polygon id="Shape" points="100 37 112.816901 37 112.816901 40.1376147 103.661972 40.1376147 103.661972 44.6697248 112.267606 44.6697248 112.267606 47.8073394 103.661972 47.8073394 103.661972 52.8623853 113 52.8623853 113 56 100 56"></polygon>
            <polygon id="Shape" points="129.090909 46.1481481 136 56 131.818182 56 126.909091 48.787037 126.909091 48.787037 122.181818 56 118 56 124.909091 46.1481481 118.545455 37 122.727273 37 127.090909 43.5092593 127.090909 43.5092593 131.454545 37 135.636364 37"></polygon>
            <path d="M181.45122,42.9814815 C181.45122,44.212963 181.085366,45.4444444 180.353659,46.3240741 C179.621951,47.2037037 178.52439,47.9074074 177.426829,48.2592593 L182,56 L177.97561,56 L173.768293,48.962963 L170.841463,48.962963 L170.841463,56 L167,56 L167,37 L174.317073,37 C175.414634,37 176.512195,37.1759259 177.243902,37.5277778 C178.158537,37.8796296 178.890244,38.2314815 179.439024,38.7592593 C179.987805,39.287037 180.536585,39.9907407 180.902439,40.6944444 C181.268293,41.3981481 181.45122,42.2777778 181.45122,42.9814815 Z M177.609756,42.9814815 C177.609756,42.1018519 177.426829,41.5740741 176.878049,41.0462963 C176.329268,40.5185185 175.597561,40.3425926 174.5,40.3425926 L170.841463,40.3425926 L170.841463,45.9722222 L174.5,45.9722222 C175.597561,45.9722222 176.329268,45.7962963 176.878049,45.2685185 C177.243902,44.5648148 177.609756,43.8611111 177.609756,42.9814815 Z" id="Shape"></path>
            <polygon id="Shape" points="148 37 160.816901 37 160.816901 40.1376147 151.661972 40.1376147 151.661972 44.6697248 160.267606 44.6697248 160.267606 47.8073394 151.661972 47.8073394 151.661972 52.8623853 161 52.8623853 161 56 148 56"></polygon>
            <path d="M139.798507,3.18396226 L139.798507,71.9929245 L3.02363184,71.9929245 L3.02363184,3.18396226 L139.798507,3.18396226 Z M143,0 L0,0 L0,75 L143,75 L143,0 Z" id="Shape"></path>
        </g>
    </g>
</svg>