<svg xmlns="http://www.w3.org/2000/svg" viewBox="0 0 100 42"><defs><style>.cls-1{fill:#4a4a4a;}</style></defs><title>Layer 2</title><g id="Layer_2" data-name="Layer 2"><g id="Layer_1-2" data-name="Layer 1"><g id="Layer_2-2" data-name="Layer 2"><g id="Layer_1-2-2" data-name="Layer 1-2"><path class="cls-1" d="M17.84,25.54a2.85,2.85,0,0,0,.63-1.88,3.29,3.29,0,0,0-.26-1.28,2.68,2.68,0,0,0-.74-1.05,3.5,3.5,0,0,0-1.19-.7,4.76,4.76,0,0,0-1.63-.26h-4V31h2V27h1.55l2.29,4h2.19l-2.51-4.34A3.47,3.47,0,0,0,17.84,25.54Zm-3.17-.29H12.72V22.13h1.95a1.77,1.77,0,0,1,1.31.42,1.44,1.44,0,0,1,.44,1.11A1.53,1.53,0,0,1,16,24.83,1.84,1.84,0,0,1,14.67,25.25Z"/><polygon class="cls-1" points="24.47 26.43 29.08 26.43 29.08 24.7 24.47 24.7 24.47 22.1 29.38 22.1 29.38 20.37 22.48 20.37 22.48 30.99 29.48 30.99 29.48 29.25 24.47 29.25 24.47 26.43"/><polygon class="cls-1" points="34.1 30.99 36.09 30.99 36.09 26.58 40.58 26.58 40.58 24.81 36.09 24.81 36.09 22.1 40.88 22.1 40.88 20.37 34.1 20.37 34.1 30.99"/><polygon class="cls-1" points="46.08 20.35 44.03 20.37 44.03 30.99 50.77 30.99 50.77 29.22 46.08 29.22 46.08 20.35"/><polygon class="cls-1" points="55.78 26.43 60.4 26.43 60.4 24.7 55.78 24.7 55.78 22.1 60.7 22.1 60.7 20.37 53.8 20.37 53.8 30.99 60.79 30.99 60.79 29.25 55.78 29.25 55.78 26.43"/><polygon class="cls-1" points="73.34 20.37 71.06 20.37 68.72 24.04 68.69 24.04 66.38 20.37 64.09 20.37 67.57 25.49 63.84 30.99 66.09 30.99 68.69 26.92 68.72 26.92 71.34 30.99 73.59 30.99 69.84 25.49 73.34 20.37"/><path class="cls-1" d="M97.5,26.65a3.49,3.49,0,0,0,1.59-1.11,2.85,2.85,0,0,0,.63-1.88,3.29,3.29,0,0,0-.26-1.28,2.68,2.68,0,0,0-.74-1.05,3.5,3.5,0,0,0-1.19-.7,4.76,4.76,0,0,0-1.63-.26h-4V31h2V27h1.56l2.28,4H100Zm-1.58-1.4H94V22.13h2a1.77,1.77,0,0,1,1.31.42,1.44,1.44,0,0,1,.44,1.11,1.51,1.51,0,0,1-.47,1.17A1.82,1.82,0,0,1,95.92,25.25Z"/><polygon class="cls-1" points="83.23 26.43 87.85 26.43 87.85 24.7 83.23 24.7 83.23 22.1 88.15 22.1 88.15 20.37 81.25 20.37 81.25 30.99 88.24 30.99 88.24 29.25 83.23 29.25 83.23 26.43"/><path class="cls-1" d="M0,42H78V0H0ZM1.72,1.73H76.28V40.27H1.72Z"/></g></g></g></g></svg>